<svg xmlns="http://www.w3.org/2000/svg" width="1280" height="150" viewBox="0 0 1280 150" role="img" aria-label="Key numbers: 6.59× faster than sequential, 16 threads; 51 tests, all passing; 0 ThreadSanitizer reports on the suite; 128 worker threads at most; 4,096 tasks in the queue at most">
<rect x="0.0" y="0" width="243.2" height="150" rx="14" fill="#0f172a"/>
<rect x="0.5" y=".5" width="242.2" height="149" rx="13.5" fill="none" stroke="#ffffff" stroke-opacity="0.09"/>
<rect x="22.0" y="0" width="199.2" height="4" rx="2" fill="#38bdf8"/>
<text x="121.6" y="78" text-anchor="middle" font-family='"Segoe UI", "Helvetica Neue", Helvetica, Arial, sans-serif' font-size="42" font-weight="800" fill="#ffffff">6.59×</text>
<text x="121.6" y="110" text-anchor="middle" font-family='"Segoe UI", "Helvetica Neue", Helvetica, Arial, sans-serif' font-size="15.5" fill="#a8b3c4">faster than</text>
<text x="121.6" y="131" text-anchor="middle" font-family='"Segoe UI", "Helvetica Neue", Helvetica, Arial, sans-serif' font-size="15.5" fill="#a8b3c4">sequential, 16 threads</text>
<rect x="259.2" y="0" width="243.2" height="150" rx="14" fill="#0f172a"/>
<rect x="259.7" y=".5" width="242.2" height="149" rx="13.5" fill="none" stroke="#ffffff" stroke-opacity="0.09"/>
<rect x="281.2" y="0" width="199.2" height="4" rx="2" fill="#a78bfa"/>
<text x="380.8" y="78" text-anchor="middle" font-family='"Segoe UI", "Helvetica Neue", Helvetica, Arial, sans-serif' font-size="42" font-weight="800" fill="#ffffff">51</text>
<text x="380.8" y="110" text-anchor="middle" font-family='"Segoe UI", "Helvetica Neue", Helvetica, Arial, sans-serif' font-size="15.5" fill="#a8b3c4">tests, all passing</text>
<rect x="518.4" y="0" width="243.2" height="150" rx="14" fill="#0f172a"/>
<rect x="518.9" y=".5" width="242.2" height="149" rx="13.5" fill="none" stroke="#ffffff" stroke-opacity="0.09"/>
<rect x="540.4" y="0" width="199.2" height="4" rx="2" fill="#34d399"/>
<text x="640.0" y="78" text-anchor="middle" font-family='"Segoe UI", "Helvetica Neue", Helvetica, Arial, sans-serif' font-size="42" font-weight="800" fill="#ffffff">0</text>
<text x="640.0" y="110" text-anchor="middle" font-family='"Segoe UI", "Helvetica Neue", Helvetica, Arial, sans-serif' font-size="15.5" fill="#a8b3c4">ThreadSanitizer</text>
<text x="640.0" y="131" text-anchor="middle" font-family='"Segoe UI", "Helvetica Neue", Helvetica, Arial, sans-serif' font-size="15.5" fill="#a8b3c4">reports on the suite</text>
<rect x="777.6" y="0" width="243.2" height="150" rx="14" fill="#0f172a"/>
<rect x="778.1" y=".5" width="242.2" height="149" rx="13.5" fill="none" stroke="#ffffff" stroke-opacity="0.09"/>
<rect x="799.6" y="0" width="199.2" height="4" rx="2" fill="#f59e0b"/>
<text x="899.2" y="78" text-anchor="middle" font-family='"Segoe UI", "Helvetica Neue", Helvetica, Arial, sans-serif' font-size="42" font-weight="800" fill="#ffffff">128</text>
<text x="899.2" y="110" text-anchor="middle" font-family='"Segoe UI", "Helvetica Neue", Helvetica, Arial, sans-serif' font-size="15.5" fill="#a8b3c4">worker threads at most</text>
<rect x="1036.8" y="0" width="243.2" height="150" rx="14" fill="#0f172a"/>
<rect x="1037.3" y=".5" width="242.2" height="149" rx="13.5" fill="none" stroke="#ffffff" stroke-opacity="0.09"/>
<rect x="1058.8" y="0" width="199.2" height="4" rx="2" fill="#f472b6"/>
<text x="1158.4" y="78" text-anchor="middle" font-family='"Segoe UI", "Helvetica Neue", Helvetica, Arial, sans-serif' font-size="42" font-weight="800" fill="#ffffff">4,096</text>
<text x="1158.4" y="110" text-anchor="middle" font-family='"Segoe UI", "Helvetica Neue", Helvetica, Arial, sans-serif' font-size="15.5" fill="#a8b3c4">tasks in the queue at most</text>
</svg>